<svg width="1439" height="420" viewBox="0 0 1439 420" fill="none" xmlns="http://www.w3.org/2000/svg">
<mask id="mask0_1_78" style="mask-type:luminance" maskUnits="userSpaceOnUse" x="-1" y="0" width="1440" height="420">
<path d="M1439 0H-1V420H1439V0Z" fill="white"/>
</mask>
<g mask="url(#mask0_1_78)">
<path d="M1439 0H-1V420H1439V0Z" fill="#0E2A47"/>
<path d="M-1.00003 370.26C90.242 371.818 154.271 306.127 238.052 278.979C343.559 244.79 487.934 260.542 554.481 190.26C620.333 120.712 586.5 22.416 559.425 -60.4327C534.128 -137.839 479.178 -206.719 405.887 -264.427C335.053 -320.202 249.446 -366.955 149.138 -383.491C52.2839 -399.458 -51.587 -388.441 -139.738 -354.373C-220.258 -323.255 -263.491 -259.951 -315.054 -204.097C-361.143 -154.171 -401.068 -103.768 -424.705 -45.69C-451.946 21.2438 -500.996 94.3215 -462.442 158.05C-423.886 221.782 -312.707 234.349 -233.157 270.933C-155.636 306.583 -91.91 368.707 -1.00003 370.26Z" fill="#0B2239"/>
<path d="M1439 731.262C1522.61 722.339 1606.28 729.907 1685.14 707.249C1778.46 680.436 1902.51 660.599 1933.2 589.27C1964.64 516.197 1847.24 453.415 1826.71 378.191C1808.02 309.674 1860.85 235.399 1819.53 172.7C1774.33 104.101 1691.49 46.6613 1593.77 24.6683C1495.87 2.63403 1392.69 29.907 1296.06 54.8828C1203.11 78.903 1117.21 113.554 1047.81 165.772C974.704 220.775 888.076 283.096 889.545 360.75C891.01 438.176 1011.13 481.43 1055.1 551.489C1098.3 620.318 1057.27 724.788 1143.31 765.078C1229.63 805.5 1338.25 742.015 1439 731.262Z" fill="#113255"/>
</g>
</svg>
